<svg width="278" height="48" viewBox="0 0 278 48" fill="none" xmlns="http://www.w3.org/2000/svg">
<g clip-path="url(#clip0_1063_185)">
<path d="M42.0899 8.08654C42.031 8.02539 41.9711 7.96429 41.9099 7.90136C40.593 6.55407 39.2956 5.28247 37.708 4.25409C37.5981 4.18121 37.5981 4.18121 37.4857 4.10687C35.8387 3.02594 34.0825 2.20007 32.2137 1.57C32.1348 1.54333 32.0561 1.51666 31.9741 1.48925C26.6197 -0.285466 26.6197 -0.285466 24.9726 0.510311C24.5881 0.802791 24.3352 1.07574 24.1882 1.53888C24.1289 2.20398 24.1289 2.20398 24.286 2.52465C24.4218 2.67504 24.5621 2.82153 24.7043 2.96582C24.7694 3.03222 24.7694 3.03222 24.8361 3.09997C24.982 3.24853 25.1281 3.39666 25.2751 3.54473C25.3797 3.65106 25.4843 3.75744 25.5891 3.86389C25.8149 4.09332 26.0404 4.32251 26.2667 4.55157C26.6253 4.91473 26.9831 5.27838 27.3414 5.64221C28.1022 6.41565 28.8646 7.18866 29.6262 7.9616C30.4455 8.7929 31.2646 9.62439 32.0833 10.4564C32.4382 10.8168 32.7932 11.177 33.1486 11.537C33.371 11.7628 33.5939 11.9889 33.8162 12.215C33.9183 12.3186 34.0207 12.4221 34.1229 12.5254C37.4344 15.875 39.4599 19.7944 39.4263 24.6508C39.3398 28.4108 37.7768 32.2216 35.1643 34.9676C34.755 35.4006 34.4002 35.8183 34.3441 36.4228C34.3891 36.972 34.4913 37.1634 34.8709 37.5495C34.9395 37.6199 34.9395 37.6199 35.0096 37.6918C35.1614 37.847 35.3143 38.0012 35.4671 38.1552C35.5731 38.2628 35.679 38.3703 35.7853 38.478C36.0079 38.7034 36.2313 38.9282 36.4545 39.1528C36.7405 39.4402 37.0242 39.7294 37.3076 40.019C37.5266 40.2418 37.7462 40.4634 37.9665 40.6846C38.0717 40.7907 38.1762 40.8972 38.2805 41.0041C38.4269 41.154 38.575 41.302 38.7232 41.4496C38.8073 41.5341 38.8908 41.6187 38.9774 41.7058C39.3581 41.9914 39.7116 42.0553 40.1849 41.99C40.4752 41.8741 40.6354 41.7427 40.8586 41.5228C40.9365 41.4458 41.0147 41.369 41.0948 41.2898C41.1768 41.2057 41.2593 41.1217 41.3439 41.0351C41.4304 40.9475 41.5159 40.8599 41.6047 40.7698C45.4548 36.7932 47.8482 31.1067 48.0612 25.618C48.0753 25.4548 48.0892 25.2916 48.1042 25.1284C48.19 24.0095 48.159 22.9149 48.035 21.805C48.0205 21.6552 48.0057 21.5054 47.9907 21.3555C47.4837 16.5108 45.4901 11.568 42.0899 8.08654Z" fill="#FAFAFA"/>
<path d="M13.2695 10.8168C13.2241 10.7698 13.1779 10.7228 13.1307 10.6744C12.9789 10.5193 12.8263 10.3651 12.6732 10.211C12.5669 10.1036 12.4611 9.99602 12.3551 9.88842C12.1326 9.66295 11.9094 9.43804 11.6858 9.21355C11.4002 8.9262 11.1163 8.63707 10.8324 8.34734C10.6143 8.12456 10.394 7.903 10.174 7.68181C10.069 7.57573 9.96436 7.46917 9.86023 7.36223C9.71326 7.21251 9.56543 7.0645 9.41675 6.91692C9.3335 6.83226 9.24988 6.74779 9.16346 6.66063C8.78296 6.37517 8.42871 6.31127 7.95533 6.37633C7.66492 6.49266 7.5033 6.62535 7.27979 6.84618C7.20118 6.92345 7.12305 7.00066 7.04236 7.08025C6.95972 7.16454 6.8772 7.24889 6.79224 7.33562C6.66309 7.46666 6.66309 7.46666 6.53125 7.60039C4.21253 10.0077 2.51746 12.9771 1.41346 16.1112C1.38514 16.1912 1.35706 16.2712 1.32801 16.3538C0.718143 18.1124 0.348026 19.9018 0.156132 21.7441C0.144413 21.8508 0.144413 21.8508 0.132938 21.9596C-0.0247765 23.4661 -0.0528527 24.9253 0.106083 26.4275C0.117069 26.5647 0.128055 26.7019 0.138676 26.8391C0.537723 31.7707 2.6764 36.8226 6.10743 40.3376C6.16541 40.3971 6.22303 40.4567 6.28272 40.518C7.58228 41.8483 8.86621 43.0934 10.431 44.1117C10.5038 44.16 10.5763 44.2083 10.651 44.2581C14.0828 46.5308 18.5721 48.1173 22.766 47.9931C23.2434 47.8841 23.545 47.5616 23.8386 47.1788C23.9908 46.7013 24.0723 46.2887 23.8533 45.8407C23.7174 45.6903 23.5774 45.5438 23.4351 45.3995C23.3912 45.3552 23.3479 45.311 23.3033 45.2654C23.157 45.1167 23.0107 44.9687 22.8644 44.8206C22.7598 44.7142 22.6552 44.6078 22.5498 44.5015C22.3247 44.2721 22.0984 44.0428 21.8728 43.8138C21.5139 43.4507 21.1556 43.087 20.7983 42.7233C20.0369 41.9498 19.2752 41.1769 18.5134 40.404C17.6936 39.5727 16.8744 38.7413 16.0558 37.9093C15.7012 37.5489 15.3461 37.1886 14.991 36.8288C14.7679 36.603 14.5459 36.3769 14.3232 36.1508C14.2211 36.0472 14.119 35.9437 14.0167 35.8404C11.2858 33.0781 9.21656 29.8708 8.8285 25.8655C8.82154 25.7966 8.81446 25.7274 8.8075 25.6562C8.41272 21.5865 9.64502 17.5027 12.2123 14.2558C12.4586 13.9626 12.7123 13.6761 12.9758 13.3985C13.385 12.9656 13.7402 12.5479 13.7964 11.9433C13.751 11.3942 13.6489 11.2029 13.2695 10.8168Z" fill="#FAFAFA"/>
<path d="M32.347 14.8217C32.1997 14.6722 32.0527 14.5225 31.9053 14.3729C31.5085 13.97 31.1107 13.5684 30.7125 13.1672C30.4636 12.9161 30.2143 12.6648 29.9657 12.4134C29.2755 11.7155 28.5843 11.0179 27.8923 10.3217C27.8263 10.2551 27.8263 10.2551 27.7587 10.1874C27.6692 10.0976 27.5803 10.0077 27.491 9.91791C27.4243 9.85101 27.4243 9.85101 27.3567 9.78284C27.29 9.71588 27.29 9.71588 27.222 9.64758C26.5013 8.92236 25.7827 8.19482 25.0649 7.46637C24.3258 6.71619 23.5847 5.96777 22.8423 5.22119C22.4261 4.80267 22.011 4.38361 21.597 3.96265C21.2091 3.56744 20.8185 3.17456 20.4265 2.78339C20.2832 2.63959 20.1402 2.495 19.9984 2.34955C19.8048 2.15088 19.6084 1.95532 19.4108 1.76025C19.3555 1.70233 19.3004 1.64435 19.2436 1.58459C18.842 1.19696 18.5232 1.11993 17.9661 1.11084C17.598 1.13574 17.2703 1.22571 16.922 1.34857C16.8118 1.38562 16.8118 1.38562 16.6992 1.4234C12.2652 2.94971 12.2652 2.94971 11.2318 4.23187C11.0038 4.71887 10.991 5.12231 11.1556 5.62836C11.3497 5.83789 11.5474 6.04187 11.7489 6.24445C11.8435 6.34027 11.8435 6.34027 11.9402 6.43805C12.1529 6.65332 12.3661 6.86829 12.5796 7.08319C12.7314 7.23688 12.8837 7.39081 13.0356 7.54462C13.3639 7.87665 13.6923 8.20856 14.0212 8.54028C14.4972 9.02075 14.9728 9.50183 15.4481 9.98303C16.2207 10.7649 16.9938 11.5465 17.767 12.328C17.8131 12.3748 17.8589 12.4216 17.9073 12.4698C18.5626 13.1326 19.2184 13.7951 19.8744 14.4576C19.9436 14.5275 19.9436 14.5275 20.0142 14.5988C20.0831 14.6685 20.0831 14.6685 20.1536 14.7396C20.9233 15.517 21.6919 16.2948 22.4607 17.0729C22.9762 17.595 23.4927 18.1166 24.0091 18.6376C24.3318 18.963 24.6533 19.2888 24.9753 19.6149C25.1236 19.7654 25.2731 19.9156 25.422 20.0657C27.2773 21.9226 27.2773 21.9226 27.8938 24.4396C27.8188 25.6481 27.2797 26.5253 26.5236 27.434C26.2612 27.8301 26.1681 28.1703 26.2319 28.6404C26.3484 28.9833 26.5107 29.1541 26.7638 29.4104C26.8314 29.4797 26.8314 29.4797 26.9001 29.5505C27.0487 29.7022 27.1984 29.8525 27.3489 30.0027C27.4531 30.1082 27.5572 30.2136 27.6614 30.3192C27.8799 30.5398 28.0987 30.7596 28.3179 30.9791C28.5991 31.2598 28.8777 31.5425 29.1555 31.8259C29.3699 32.0443 29.5859 32.2612 29.8019 32.4778C29.9054 32.5815 30.0079 32.6857 30.1103 32.7903C30.2543 32.9365 30.3992 33.0811 30.5448 33.2252C30.6271 33.3078 30.7092 33.3903 30.7934 33.4753C31.1634 33.7511 31.5152 33.81 31.9737 33.7767C32.3779 33.5989 32.6437 33.3133 32.9488 32.9973C33.0135 32.9307 33.0785 32.8643 33.1451 32.7958C35.3352 30.4981 36.3611 27.5096 36.4741 24.3881C36.4788 24.2944 36.4838 24.2006 36.4888 24.104C36.5549 22.1823 36.0391 20.2846 35.2143 18.5768C35.1809 18.5069 35.1475 18.437 35.1129 18.3649C34.4119 16.9836 33.427 15.9074 32.347 14.8217Z" fill="#FAFAFA"/>
<path d="M21.3767 18.9566C21.3319 18.9103 21.2865 18.8641 21.24 18.8164C21.0919 18.6646 20.9415 18.5143 20.7917 18.3642C20.6875 18.2587 20.5833 18.1532 20.4786 18.0477C20.2608 17.827 20.0418 17.6071 19.822 17.3878C19.5413 17.1071 19.2633 16.8243 18.9848 16.5407C18.7703 16.3224 18.5549 16.1055 18.3382 15.8888C18.2351 15.7851 18.1323 15.6809 18.03 15.5763C17.8866 15.4299 17.7415 15.2855 17.596 15.1414C17.4727 15.0175 17.4727 15.0175 17.3466 14.8912C16.9737 14.6185 16.6135 14.5688 16.1394 14.6177C15.7168 14.8135 15.4338 15.1166 15.1092 15.452C15.0063 15.5579 15.0063 15.5579 14.901 15.6659C12.5706 18.1042 11.4199 21.2183 11.2067 24.4409C11.1987 24.5377 11.1909 24.6346 11.1827 24.7344C11.0545 26.7182 11.5278 28.659 12.3249 30.3942C12.3574 30.4653 12.3899 30.5364 12.4233 30.6096C13.1031 32.012 14.085 33.0909 15.1651 34.1765C15.3123 34.3262 15.4597 34.4759 15.6069 34.6257C16.0033 35.0286 16.4012 35.4302 16.7992 35.8315C17.0483 36.0826 17.2973 36.3339 17.5459 36.5854C18.2363 37.2833 18.9272 37.9811 19.6191 38.6773C19.6853 38.7438 19.6853 38.7438 19.7528 38.8117C19.8421 38.9015 19.9312 38.9913 20.0208 39.0811C20.0871 39.1479 20.0871 39.1479 20.155 39.2162C20.2214 39.2831 20.2214 39.2831 20.2894 39.3514C21.0102 40.0767 21.7285 40.8043 22.4461 41.533C23.185 42.2834 23.9261 43.0319 24.6687 43.7786C25.0847 44.197 25.4998 44.6161 25.9134 45.0373C26.3016 45.4326 26.6922 45.8254 27.0841 46.2166C27.2274 46.3603 27.3704 46.505 27.5119 46.6506C27.7053 46.8493 27.9019 47.0448 28.0997 47.2397C28.1549 47.2978 28.2098 47.3559 28.2668 47.4156C28.6684 47.8029 28.9948 47.8722 29.5689 47.8641C29.9503 47.8268 30.2909 47.7238 30.6534 47.5861C30.7302 47.5583 30.8065 47.5306 30.8851 47.5019C35.5052 45.7887 35.5052 45.7887 36.611 44.434C36.8613 43.9246 36.887 43.5081 36.733 42.9914C36.5391 42.7814 36.3418 42.5773 36.1402 42.3748C36.077 42.3109 36.014 42.2469 35.9491 42.1811C35.7363 41.9657 35.5234 41.7507 35.3101 41.5359C35.1579 41.3821 35.0062 41.2283 34.8537 41.0743C34.5255 40.7422 34.1971 40.4103 33.8685 40.0786C33.3924 39.598 32.9171 39.1169 32.4414 38.6356C31.669 37.8536 30.8962 37.0717 30.1237 36.2902C30.0771 36.2433 30.0311 36.1965 29.9835 36.1483C29.3276 35.4853 28.6722 34.8228 28.0164 34.1602C27.9701 34.1136 27.9244 34.067 27.8764 34.019C27.8075 33.9493 27.8075 33.9493 27.7369 33.8782C26.9679 33.1007 26.1988 32.3228 25.4303 31.5444C24.9146 31.0222 24.3985 30.5006 23.8819 29.9795C23.5595 29.654 23.2379 29.3282 22.9162 29.002C22.7677 28.8516 22.6189 28.7012 22.4696 28.5511C20.6137 26.6945 20.6137 26.6945 20.0565 24.1182C20.1713 22.8697 20.7553 21.948 21.5627 20.9872C21.8458 20.5705 21.9521 20.2167 21.9006 19.7339C21.7911 19.384 21.6291 19.2131 21.3767 18.9566Z" fill="#FAFAFA"/>
<path d="M65.58 37.7889V12.6929H76.3489C78.2272 12.6929 79.9388 13.0037 81.4834 13.6251C83.0288 14.2465 84.3717 15.1188 85.5131 16.2422C86.6537 17.3417 87.5337 18.6561 88.1517 20.1859C88.7695 21.7155 89.0787 23.4005 89.0787 25.2409C89.0787 27.0574 88.7695 28.7424 88.1517 30.296C87.5337 31.8256 86.6537 33.1521 85.5131 34.2755C84.3717 35.3749 83.0288 36.2354 81.4834 36.8568C79.9388 37.4781 78.2272 37.7889 76.3489 37.7889H65.58ZM72.6406 33.2716L71.5353 31.6583H76.1709C77.0502 31.6583 77.835 31.503 78.524 31.1923C79.2372 30.8815 79.8436 30.4512 80.3428 29.9016C80.8417 29.3279 81.234 28.6468 81.519 27.858C81.8047 27.0693 81.9473 26.197 81.9473 25.2409C81.9473 24.2848 81.8047 23.4125 81.519 22.6237C81.234 21.835 80.8303 21.1658 80.3068 20.616C79.808 20.0424 79.213 19.6003 78.524 19.2896C77.835 18.9788 77.0502 18.8235 76.1709 18.8235H71.4283L72.6406 17.2819V33.2716ZM102.208 38.1474C100.044 38.1474 98.1786 37.7291 96.6096 36.8926C95.0409 36.0322 93.8284 34.861 92.9728 33.3792C92.1165 31.8734 91.689 30.1644 91.689 28.2524C91.689 26.8184 91.9271 25.4919 92.4021 24.2729C92.8772 23.054 93.5428 22.0023 94.3989 21.118C95.2548 20.2098 96.2648 19.5166 97.4298 19.0386C98.6183 18.5367 99.9142 18.2857 101.317 18.2857C102.695 18.2857 103.943 18.5248 105.061 19.0027C106.202 19.4807 107.176 20.1619 107.984 21.0463C108.817 21.9307 109.446 22.9703 109.875 24.1653C110.326 25.3604 110.528 26.6749 110.481 28.109L110.445 29.6147H95.4684L94.6486 26.2806H105.132L104.49 26.9976V26.3165C104.49 25.7906 104.348 25.3365 104.062 24.9541C103.801 24.5478 103.444 24.2371 102.993 24.022C102.541 23.8068 102.03 23.6993 101.459 23.6993C100.651 23.6993 99.973 23.8666 99.4268 24.2012C98.9032 24.512 98.4998 24.966 98.2142 25.5635C97.9291 26.1611 97.7866 26.8781 97.7866 27.7147C97.7866 28.6707 97.9761 29.4953 98.3567 30.1884C98.7606 30.8815 99.3436 31.4193 100.104 31.8017C100.889 32.1841 101.84 32.3753 102.957 32.3753C103.694 32.3753 104.336 32.2797 104.882 32.0885C105.453 31.8973 106.059 31.5626 106.701 31.0847L109.768 35.4227C108.936 36.0919 108.091 36.6297 107.236 37.036C106.404 37.4185 105.571 37.6932 104.74 37.8606C103.908 38.0518 103.064 38.1474 102.208 38.1474ZM113.937 37.7889V18.6801H120.142L120.392 21.835L119.571 21.6916C119.904 21.0702 120.296 20.5444 120.748 20.1141C121.199 19.6839 121.698 19.3373 122.246 19.0745C122.792 18.7876 123.351 18.5845 123.922 18.465C124.492 18.3455 125.039 18.2857 125.562 18.2857C126.441 18.2857 127.25 18.4172 127.986 18.6801C128.747 18.9191 129.413 19.3373 129.983 19.9349C130.577 20.5325 131.065 21.369 131.445 22.4445L130.411 22.3727L130.697 21.8708C131.053 21.2495 131.469 20.7236 131.945 20.2934C132.444 19.8632 132.99 19.4927 133.585 19.182C134.179 18.8713 134.785 18.6442 135.404 18.5009C136.045 18.3574 136.651 18.2857 137.222 18.2857C138.767 18.2857 140.062 18.5845 141.109 19.182C142.154 19.7795 142.939 20.6638 143.462 21.835C143.985 22.9822 144.247 24.3923 144.247 26.0655V37.7889H137.614V26.6032C137.614 25.9819 137.519 25.4679 137.329 25.0616C137.138 24.6314 136.865 24.3087 136.509 24.0936C136.152 23.8785 135.712 23.771 135.19 23.771C134.785 23.771 134.405 23.8427 134.049 23.9861C133.715 24.1056 133.43 24.2968 133.193 24.5597C132.955 24.7988 132.765 25.0735 132.622 25.3843C132.48 25.6711 132.408 26.0177 132.408 26.424V37.7889H125.776V26.5674C125.776 25.9698 125.681 25.4679 125.491 25.0616C125.3 24.6553 125.027 24.3446 124.671 24.1295C124.314 23.8904 123.873 23.771 123.351 23.771C122.946 23.771 122.567 23.8427 122.21 23.9861C121.877 24.1056 121.592 24.2848 121.354 24.5239C121.116 24.7629 120.926 25.0377 120.784 25.3484C120.641 25.6592 120.57 26.0057 120.57 26.3881V37.7889H113.937ZM158.097 38.1474C156.077 38.1474 154.27 37.7172 152.677 36.8568C151.085 35.9963 149.837 34.8251 148.933 33.3433C148.03 31.8615 147.578 30.1525 147.578 28.2166C147.578 26.2806 148.03 24.5717 148.933 23.0898C149.837 21.608 151.085 20.4368 152.677 19.5764C154.27 18.7159 156.077 18.2857 158.097 18.2857C160.118 18.2857 161.912 18.7159 163.481 19.5764C165.074 20.4368 166.322 21.608 167.226 23.0898C168.129 24.5717 168.581 26.2806 168.581 28.2166C168.581 30.1525 168.129 31.8615 167.226 33.3433C166.322 34.8251 165.074 35.9963 163.481 36.8568C161.912 37.7172 160.118 38.1474 158.097 38.1474ZM158.097 32.5187C158.81 32.5187 159.452 32.3395 160.022 31.981C160.617 31.5985 161.069 31.0847 161.377 30.4393C161.711 29.7701 161.877 29.0292 161.877 28.2166C161.877 27.3561 161.711 26.6032 161.377 25.9579C161.069 25.3126 160.617 24.8107 160.022 24.4521C159.452 24.0697 158.81 23.8785 158.097 23.8785C157.361 23.8785 156.707 24.0697 156.136 24.4521C155.565 24.8107 155.115 25.3245 154.781 25.9938C154.448 26.6391 154.281 27.3801 154.281 28.2166C154.281 29.0292 154.448 29.7701 154.781 30.4393C155.115 31.0847 155.565 31.5985 156.136 31.981C156.707 32.3395 157.361 32.5187 158.097 32.5187Z" fill="white"/>
<path d="M184.365 37.7888V12.6928H194.956C196.429 12.6928 197.76 13.0513 198.949 13.7684C200.162 14.4615 201.112 15.4175 201.802 16.6365C202.515 17.8555 202.872 19.2297 202.872 20.7594C202.872 22.3129 202.515 23.7111 201.802 24.954C201.112 26.1969 200.162 27.1887 198.949 27.9297C197.76 28.6467 196.429 29.0052 194.956 29.0052H189.714V37.7888H184.365ZM189.642 24.1653H194.349C194.92 24.1653 195.431 24.0219 195.883 23.735C196.334 23.4243 196.69 23.018 196.953 22.5161C197.238 22.0142 197.38 21.4406 197.38 20.7953C197.38 20.15 197.238 19.5883 196.953 19.1102C196.69 18.6083 196.334 18.2259 195.883 17.963C195.431 17.6761 194.92 17.5328 194.349 17.5328H189.642V24.1653ZM213.66 38.1473C212.091 38.1473 210.676 37.7171 209.417 36.8567C208.157 35.9963 207.158 34.8251 206.422 33.3433C205.684 31.8614 205.316 30.1644 205.316 28.2523C205.316 26.3403 205.684 24.6553 206.422 23.1973C207.182 21.7155 208.204 20.5562 209.488 19.7197C210.771 18.8593 212.234 18.4291 213.874 18.4291C214.801 18.4291 215.645 18.5724 216.406 18.8593C217.19 19.1222 217.868 19.4927 218.438 19.9706C219.032 20.4487 219.532 20.9984 219.936 21.6198C220.34 22.2412 220.625 22.9105 220.792 23.6275L219.722 23.4482V18.8234H224.75V37.7888H219.651V33.2357L220.792 33.1281C220.602 33.7974 220.292 34.4307 219.865 35.0283C219.437 35.6258 218.902 36.1636 218.26 36.6416C217.642 37.0957 216.941 37.4662 216.156 37.753C215.371 38.0159 214.54 38.1473 213.66 38.1473ZM215.051 33.7376C216.002 33.7376 216.834 33.5106 217.547 33.0565C218.26 32.6023 218.807 31.969 219.187 31.1563C219.591 30.3198 219.793 29.3518 219.793 28.2523C219.793 27.1768 219.591 26.2327 219.187 25.4201C218.807 24.6074 218.26 23.9741 217.547 23.52C216.834 23.042 216.002 22.8029 215.051 22.8029C214.124 22.8029 213.304 23.042 212.59 23.52C211.901 23.9741 211.354 24.6074 210.95 25.4201C210.546 26.2327 210.344 27.1768 210.344 28.2523C210.344 29.3518 210.546 30.3198 210.95 31.1563C211.354 31.969 211.901 32.6023 212.59 33.0565C213.304 33.5106 214.124 33.7376 215.051 33.7376ZM229.826 37.7888V18.8234H234.676L234.819 22.6954L233.82 23.1256C234.081 22.2651 234.544 21.4883 235.211 20.7953C235.9 20.0782 236.72 19.5046 237.671 19.0744C238.622 18.6442 239.62 18.4291 240.667 18.4291C242.093 18.4291 243.281 18.7159 244.232 19.2895C245.207 19.8631 245.931 20.7355 246.407 21.9067C246.907 23.0539 247.156 24.476 247.156 26.173V37.7888H242.093V26.5673C242.093 25.7069 241.973 24.9899 241.736 24.4163C241.498 23.8427 241.13 23.4243 240.631 23.1614C240.155 22.8746 239.561 22.7551 238.848 22.8029C238.277 22.8029 237.743 22.8986 237.243 23.0898C236.767 23.2571 236.352 23.5081 235.995 23.8427C235.662 24.1772 235.389 24.5596 235.175 24.9899C234.984 25.4201 234.89 25.8862 234.89 26.3881V37.7888H232.394C231.846 37.7888 231.36 37.7888 230.932 37.7888C230.504 37.7888 230.135 37.7888 229.826 37.7888ZM260.958 38.1473C258.914 38.1473 257.13 37.7291 255.609 36.8925C254.088 36.056 252.899 34.9088 252.043 33.4508C251.187 31.9928 250.759 30.3198 250.759 28.4316C250.759 26.9736 250.997 25.6352 251.472 24.4163C251.948 23.1973 252.613 22.1457 253.469 21.2613C254.325 20.3531 255.336 19.6599 256.5 19.1819C257.689 18.68 258.973 18.4291 260.351 18.4291C261.635 18.4291 262.824 18.6681 263.917 19.1461C265.011 19.6002 265.949 20.2575 266.734 21.1179C267.543 21.9544 268.16 22.9464 268.588 24.0936C269.016 25.2408 269.207 26.4956 269.158 27.858L269.123 29.4354H253.969L253.148 26.3164H264.951L264.381 26.9617V26.173C264.333 25.5276 264.12 24.9421 263.739 24.4163C263.382 23.8904 262.919 23.4841 262.348 23.1973C261.777 22.9105 261.135 22.7671 260.422 22.7671C259.377 22.7671 258.485 22.9703 257.748 23.3766C257.035 23.7828 256.489 24.3804 256.108 25.1691C255.728 25.9578 255.537 26.9139 255.537 28.0372C255.537 29.1845 255.775 30.1764 256.25 31.0129C256.75 31.8494 257.44 32.5067 258.319 32.9847C259.223 33.4389 260.28 33.6659 261.492 33.6659C262.325 33.6659 263.085 33.5344 263.774 33.2715C264.464 33.0087 265.201 32.5545 265.985 31.9092L268.41 35.3151C267.721 35.9365 266.96 36.4623 266.128 36.8925C265.296 37.2988 264.44 37.6096 263.56 37.8247C262.682 38.0398 261.813 38.1473 260.958 38.1473ZM272.937 37.7888V11.2588H278V37.7888H272.937Z" fill="white" fill-opacity="0.75"/>
</g>
<defs>
<clipPath id="clip0_1063_185">
<rect width="278" height="48" fill="white"/>
</clipPath>
</defs>
</svg>
